<svg width="42" height="32" viewBox="0 0 42 32" fill="none" xmlns="http://www.w3.org/2000/svg">
<path d="M24.0944 28.6648C25.5728 30.2776 27.2192 31.2184 29.0336 31.4872C30.848 31.6888 32.6288 31.3864 34.376 30.58C36.056 29.7064 37.5008 28.4632 38.7104 26.8504C39.92 25.1032 40.6928 23.0872 41.0288 20.8024C41.3648 18.4504 40.9952 15.9304 39.92 13.2424C38.7776 10.4872 36.7616 7.9672 33.872 5.6824C30.9152 3.3304 27.3872 1.7176 23.288 0.843998C22.5488 0.7096 22.0448 0.676001 21.776 0.7432C21.5072 0.810399 21.3392 0.9112 21.272 1.0456C21.272 1.6504 21.4736 2.0872 21.8768 2.356C23.5568 3.2968 24.968 4.4728 26.1104 5.884C27.2528 7.2952 27.9584 8.6728 28.2272 10.0168C28.496 11.2936 28.1936 12.2344 27.32 12.8392C27.0512 13.0408 26.4128 13.612 25.4048 14.5528C24.3968 15.4264 23.456 16.6024 22.5824 18.0808C21.7088 19.492 21.3056 21.1048 21.3728 22.9192C21.3728 24.7336 22.28 26.6488 24.0944 28.6648ZM2.9264 28.6648C4.4048 30.2776 6.0512 31.2184 7.8656 31.4872C9.68 31.6888 11.4608 31.3864 13.208 30.58C14.888 29.7064 16.3328 28.4632 17.5424 26.8504C18.752 25.1032 19.5248 23.0872 19.8608 20.8024C20.1968 18.4504 19.8272 15.9304 18.752 13.2424C17.6096 10.4872 15.5936 7.9672 12.704 5.6824C9.7472 3.3304 6.2192 1.7176 2.12 0.843998C1.3808 0.7096 0.8768 0.676001 0.608001 0.7432C0.339201 0.810399 0.1712 0.9112 0.103999 1.0456C0.103999 1.6504 0.305599 2.0872 0.7088 2.356C2.3888 3.2968 3.8 4.4728 4.9424 5.884C6.0848 7.2952 6.7904 8.6728 7.0592 10.0168C7.328 11.2936 7.0256 12.2344 6.152 12.8392C5.8832 13.0408 5.2448 13.612 4.2368 14.5528C3.2288 15.4264 2.288 16.6024 1.4144 18.0808C0.540799 19.492 0.137599 21.1048 0.2048 22.9192C0.2048 24.7336 1.112 26.6488 2.9264 28.6648Z" fill="#FA4A0C"/>
</svg>
